<svg version="1.1" id="Layer_1" xmlns="http://www.w3.org/2000/svg" xmlns:xlink="http://www.w3.org/1999/xlink" x="0px" y="0px"
	 width="100%" viewBox="0 0 1024 1024" enable-background="new 0 0 1024 1024" xml:space="preserve">
<path fill="#000000" opacity="1.000000" stroke="none" 
	d="
M197.120605,698.119812 
	C228.160385,667.050049 258.947540,636.227661 289.614594,605.525452 
	C287.582733,602.458679 285.382141,603.181458 283.529053,603.180359 
	C221.698120,603.143250 159.867157,603.170654 98.036209,603.142090 
	C93.609344,603.140015 89.058395,603.771484 84.083405,601.333923 
	C120.130989,565.352661 155.866684,529.682678 192.490723,493.126007 
	C156.241516,457.188599 120.464592,421.719421 84.687668,386.250244 
	C84.892624,385.596375 85.097580,384.942505 85.302536,384.288635 
	C153.106064,384.288635 220.909607,384.288635 288.713135,384.288635 
	C288.970886,383.585571 289.228668,382.882477 289.486420,382.179413 
	C255.118500,347.844910 220.750595,313.510406 186.297775,279.091064 
	C188.529572,276.920685 190.629166,277.680298 192.495895,277.679077 
	C257.994202,277.636414 323.492523,277.657135 388.990784,277.589569 
	C391.311829,277.587158 394.654572,278.932343 395.732483,276.088013 
	C396.725128,273.468689 393.740631,271.755859 392.042969,270.065765 
	C365.002411,243.145844 337.889160,216.298965 310.839020,189.388641 
	C306.117798,184.691849 301.604126,179.786179 297.006592,174.965546 
	C296.220398,174.141190 295.246307,173.377869 295.772858,171.162964 
	C364.243683,171.162964 432.913574,171.162964 501.968811,171.162964 
	C466.768738,135.736908 432.172974,100.919037 397.577179,66.101158 
	C397.893372,65.541466 398.209534,64.981781 398.525726,64.422089 
	C473.857849,64.422089 549.190002,64.422089 626.202332,64.422089 
	C590.678101,100.026642 556.102661,134.680313 521.527161,169.334000 
	C521.680664,169.802216 521.834229,170.270447 521.987732,170.738663 
	C590.106873,170.738663 658.225952,170.738663 726.345093,170.738663 
	C726.612122,171.309830 726.879211,171.881012 727.146240,172.452179 
	C693.244324,206.872589 659.342346,241.292984 625.440430,275.713379 
	C625.740417,276.285309 626.040344,276.857239 626.340332,277.429169 
	C696.844299,277.429169 767.348328,277.429169 839.346130,277.429169 
	C803.477051,313.323334 768.780273,348.044342 734.083557,382.765350 
	C734.244202,383.254211 734.404846,383.743103 734.565491,384.231964 
	C802.218262,384.231964 869.870972,384.231964 937.407837,384.231964 
	C938.026855,387.664795 936.024170,388.734222 934.704102,390.056610 
	C901.972473,422.846375 869.210999,455.606323 836.441589,488.358307 
	C831.415283,493.381989 831.345337,493.392059 836.358765,498.380676 
	C859.842651,521.747864 883.378296,545.063110 906.836060,568.456421 
	C916.383545,577.977722 925.782227,587.648254 935.243408,597.256104 
	C936.394104,598.424683 937.660706,599.538635 937.814697,601.318054 
	C935.852051,603.825928 933.171936,603.134277 930.797607,603.135498 
	C878.800293,603.162720 826.802917,603.130005 774.805603,603.124207 
	C762.806213,603.122864 750.806824,603.165039 738.807556,603.226013 
	C737.375793,603.233276 735.758972,602.784912 734.051575,605.154480 
	C768.405396,639.439575 802.874084,673.839355 837.342834,708.239136 
	C837.090576,708.827026 836.838379,709.414917 836.586121,710.002808 
	C766.791565,710.002808 696.996948,710.002808 627.202332,710.002808 
	C626.977234,710.562805 626.752136,711.122803 626.527039,711.682739 
	C660.466614,745.756775 694.406189,779.830811 728.345764,813.904846 
	C728.101624,814.511230 727.857422,815.117676 727.613281,815.724060 
	C659.233582,815.724060 590.853943,815.724060 522.474243,815.724060 
	C522.251282,816.306335 522.028259,816.888611 521.805298,817.470886 
	C555.758911,853.762146 593.305603,886.568542 627.825195,924.455750 
	C550.176331,924.455750 474.085419,924.455750 397.994507,924.455750 
	C397.726196,924.044739 397.457916,923.633728 397.189606,923.222717 
	C432.387177,887.972534 467.584747,852.722351 502.782349,817.472229 
	C502.695068,817.033813 502.607819,816.595459 502.520569,816.157104 
	C433.801361,816.157104 365.082123,816.157104 296.362915,816.157104 
	C296.048157,815.498901 295.733398,814.840759 295.418610,814.182556 
	C329.371765,779.710327 364.323029,746.207275 397.897675,711.367493 
	C397.764954,710.918152 397.632263,710.468872 397.499542,710.019531 
	C327.563812,710.019531 257.628113,710.019531 186.228073,710.019531 
	C189.832001,704.706299 193.641357,701.786377 197.120605,698.119812 
M757.835388,561.335083 
	C779.061035,539.922729 800.223511,518.447083 821.580750,497.166840 
	C824.758850,494.000092 824.529114,492.151215 821.485046,489.142212 
	C802.289551,470.167389 783.258362,451.026276 764.180542,431.932526 
	C695.759399,363.454437 627.341309,294.973328 558.922058,226.493423 
	C544.555908,212.114502 530.136536,197.787964 515.868774,183.312088 
	C513.058899,180.461288 510.981049,180.063354 508.165802,183.212891 
	C505.288849,186.431396 501.951263,189.233261 498.897247,192.299133 
	C468.461548,222.852737 438.102692,253.483170 407.599152,283.968842 
	C385.683380,305.871796 363.514984,327.521790 341.575317,349.400970 
	C296.748047,394.104675 251.995483,438.883301 207.225586,483.644501 
	C204.198456,486.671112 201.283981,489.810394 198.361252,492.851349 
	C303.457458,597.671631 408.177277,702.116577 513.330933,806.994202 
	C594.254150,725.688171 675.794800,643.761780 757.835388,561.335083 
z"/>
<path fill="#000000" opacity="1.000000" stroke="none" 
	d="
M584.884521,348.095459 
	C611.335205,374.688660 637.497375,401.073883 663.745544,427.373230 
	C684.446350,448.114319 705.192261,468.811646 726.081360,489.362427 
	C729.067200,492.299896 728.615845,494.202515 726.042664,496.771149 
	C711.303406,511.484497 696.604187,526.238159 681.918457,541.005066 
	C659.484497,563.562927 637.093079,586.163086 614.646667,608.708435 
	C581.730103,641.770203 548.741272,674.760193 515.907043,707.903442 
	C512.639221,711.202026 510.519318,710.525330 507.671692,707.672058 
	C485.073486,685.029297 462.421844,662.439636 439.748993,639.871460 
	C411.050385,611.305298 382.304047,582.787048 353.601959,554.224365 
	C334.585815,535.300598 315.647949,516.297852 296.575958,497.430573 
	C293.911133,494.794373 293.499054,493.116669 296.444885,490.203644 
	C330.440613,456.586792 364.363556,422.895569 398.179016,389.097290 
	C435.184235,352.110931 472.094147,315.028839 508.912689,277.856873 
	C511.706848,275.035858 513.083740,276.484314 514.944580,278.340454 
	C530.982117,294.337036 547.016174,310.337036 563.052917,326.334442 
	C570.244385,333.508301 577.439575,340.678558 584.884521,348.095459 
M578.807556,460.691040 
	C559.667480,441.431244 540.597900,422.100616 521.357422,402.941650 
	C511.784454,393.409180 513.983154,392.167603 503.069183,402.936859 
	C473.662872,431.953156 444.555511,461.272217 415.215790,490.356445 
	C412.409790,493.138000 412.398804,494.790863 415.187683,497.563629 
	C446.013824,528.211304 476.770844,558.929077 507.408142,589.765381 
	C510.763000,593.142029 512.838440,592.696777 515.899231,589.542236 
	C525.409546,579.740601 535.180786,570.192322 544.832153,560.527161 
	C564.958252,540.372192 585.077209,520.210022 605.188416,500.040161 
	C611.334167,493.876495 611.325012,493.853973 605.195007,487.596130 
	C596.569580,478.790863 587.932800,469.996674 578.807556,460.691040 
z"/>
</svg>